<svg id="Layer_1" data-name="Layer 1" xmlns="http://www.w3.org/2000/svg" viewBox="0 0 54 45"><defs><style>.cls-1{fill:#fff;}.cls-2{fill:#ff671b;}</style></defs><title>4</title><path class="cls-1" d="M50,10.35c-.38-.56-5.6-8.28-14.63-8.28H16A11.39,11.39,0,0,0,4.66,13.46V34.71c0,.64-1,.26-1,.26a2,2,0,0,0-.79-.16A1.88,1.88,0,0,0,1,36.69c0,2.22,3.48,3.16,4.86,3.16a8,8,0,0,0,1.21-.09,11.36,11.36,0,0,0,9,4.39H35.34A11.39,11.39,0,0,0,46.72,32.76V21.12l2.61-3.3h0a39.82,39.82,0,0,0,2.38-3.58c.41-.85,0-1.31-1.74-3.88"/><path class="cls-2" d="M38.62,32a4.43,4.43,0,0,0,1.36.2c2.06,0,3-.82,3-1.79,0-1.14-1.54-1.13-1.7-2.14-.2-1.25-.07-6.79,2.08-9.86l1.43.65a1.89,1.89,0,0,0,.91.21,1.42,1.42,0,0,0,1-.5,31.25,31.25,0,0,0,3.76-5.18c.18-.36-2.85-4.15-4.54-5.52a6.79,6.79,0,0,0-10.64,3.05,32.35,32.35,0,0,1-9.61,4.56C21,16.94,16.23,15.8,13,16a6.57,6.57,0,0,0-6.59,6.85C6.48,26.42,9,29.71,9,33.11a3.72,3.72,0,0,1-3.66,3.84c-1.78,0-1.9-.73-2.44-.73a.48.48,0,0,0-.47.47c0,.9,2.2,1.75,3.46,1.75a5.52,5.52,0,0,0,4.73-2.38,4.17,4.17,0,0,0,4.15,2.47c2.63,0,3.77-1.26,3.77-2.31,0-.85-.52-1.21-.89-1.72a2.83,2.83,0,0,1-.5-1.58,9.75,9.75,0,0,0,1.42.09c1.91,0,2.5-.78,2.5-1.54,0-1-1.15-.91-1.15-2.52,0-1.22.67-1.62,1.27-1.62s3.08.23,6,.54c1,.1,3.44,1.05,3.44,4.87v1.37c0,2.33.94,5.21,5.05,5.21,2.79,0,4.36-1.56,4.36-2.68,0-.73-.65-1.06-1-1.5A4.21,4.21,0,0,1,38.61,32"/><path class="cls-1" d="M45.4,15.36a.48.48,0,1,0,.48.48.48.48,0,0,0-.48-.48"/><path class="cls-1" d="M47.09,13.94a.44.44,0,1,0,.44.44.44.44,0,0,0-.44-.44"/><path class="cls-1" d="M47.88,12.31a.36.36,0,1,0,.36.36.36.36,0,0,0-.36-.36"/><path class="cls-1" d="M34,14.61a.52.52,0,1,0-.52-.52.52.52,0,0,0,.52.52"/><path class="cls-1" d="M36,27.3a.52.52,0,1,0,.52.52A.52.52,0,0,0,36,27.3"/><path class="cls-1" d="M39.13,27.82a.52.52,0,1,0,.53.52.52.52,0,0,0-.53-.52"/><path class="cls-1" d="M36.44,22.53A.52.52,0,1,0,37,23a.52.52,0,0,0-.53-.52"/><path class="cls-1" d="M38.22,19a.52.52,0,1,0-.52-.52.52.52,0,0,0,.52.52"/><path class="cls-1" d="M30.05,16.86a.52.52,0,1,0-.52-.52.52.52,0,0,0,.52.52"/><path class="cls-1" d="M33,26.22a.52.52,0,1,0,.53.52.52.52,0,0,0-.53-.52"/><path class="cls-1" d="M31.54,19.44a.53.53,0,1,0-.52-.53.52.52,0,0,0,.52.53"/><path class="cls-1" d="M28.22,22.42a.52.52,0,1,0,.53.52.52.52,0,0,0-.53-.52"/><path class="cls-1" d="M33.65,21.86a.52.52,0,1,0-.52-.52.52.52,0,0,0,.52.52"/><path class="cls-1" d="M25.37,17.16a.52.52,0,1,0,.52.53.52.52,0,0,0-.52-.53"/><path class="cls-1" d="M26.51,19.89a.52.52,0,1,0,.52.52.52.52,0,0,0-.52-.52"/><path class="cls-1" d="M30.34,24.46a.53.53,0,1,0,.53.53.53.53,0,0,0-.53-.53"/><path class="cls-1" d="M35.73,17a.52.52,0,1,0-.52-.52.52.52,0,0,0,.52.52"/><path class="cls-1" d="M39.59,23.53a.52.52,0,1,0,.52.52.52.52,0,0,0-.52-.52"/><path class="cls-1" d="M40.9,19.25a.52.52,0,1,0,.53.52.52.52,0,0,0-.53-.52"/><path class="cls-1" d="M40.56,14.94a.53.53,0,1,0,.52.53.52.52,0,0,0-.52-.53"/><path class="cls-1" d="M43.05,15.75a.52.52,0,1,0,.52.52.52.52,0,0,0-.52-.52"/><path class="cls-1" d="M38.7,13.32a.52.52,0,1,0,.52.52.53.53,0,0,0-.52-.52"/><path class="cls-1" d="M37.66,11.35a.52.52,0,1,0,.53.52.52.52,0,0,0-.53-.52"/><path class="cls-1" d="M39.84,11.35a.52.52,0,1,0,.52.52.53.53,0,0,0-.52-.52"/><path class="cls-1" d="M37.36,9.92a.44.44,0,1,1,.44.44.44.44,0,0,1-.44-.44"/><path class="cls-1" d="M38.66,8.32a.33.33,0,1,1,.33.33.33.33,0,0,1-.33-.33"/><path class="cls-1" d="M40.35,7.57a.29.29,0,1,1,.58,0,.29.29,0,0,1-.58,0"/><path class="cls-1" d="M47.55,11.18a.27.27,0,1,1,.26.26.26.26,0,0,1-.26-.26"/><path class="cls-1" d="M47.18,16.43a.29.29,0,1,1,.3.28.3.3,0,0,1-.3-.28"/><path class="cls-1" d="M47.92,15.41a.29.29,0,1,1,.3.27.28.28,0,0,1-.3-.27"/><path class="cls-1" d="M46.39,17.43a.28.28,0,1,1,.29.27.28.28,0,0,1-.29-.27"/><path class="cls-1" d="M45.5,18.37a.28.28,0,0,1,.27-.3.29.29,0,1,1,0,.57.28.28,0,0,1-.3-.27"/><path class="cls-1" d="M48.6,14.41a.28.28,0,1,1,.57,0,.28.28,0,0,1-.27.3.28.28,0,0,1-.3-.27"/><path class="cls-1" d="M49.13,13.52a.28.28,0,1,1,.57,0,.28.28,0,1,1-.57,0"/><path class="cls-1" d="M16.4,35.67A8.5,8.5,0,0,1,15.81,29c1.47-3.76,5.68-3.27,5.68-3.27a4.93,4.93,0,0,0-2.22-.43,5.54,5.54,0,0,0-5.07,6,5.94,5.94,0,0,0,2.21,4.45"/><path class="cls-1" d="M9.32,25.11A4.55,4.55,0,0,1,8,21.89a4.64,4.64,0,0,1,4.55-4.55c2.59-.14,7.34.64,10.37.24,1,4.68,4.5,8,7.13,10.07-3.12-1.39-6.26-5.09-9.88-7.1-3.78-2.1-7.58-2.41-9.57-.58a5.19,5.19,0,0,0-1.26,5.14"/><path class="cls-1" d="M20,29.83c.23,1.35-2.2,1.78-2.2,1.78,2.21.39,3-.78,3-.78l-.76-1"/><path class="cls-1" d="M37.66,30.55h0s-1.44,2-.45,5.77a6.53,6.53,0,0,1-2.56,1.3S38,38,39,36.26c-2-1.56-1.42-5.45-1.37-5.71"/><path class="cls-1" d="M44.32,9.23a2.22,2.22,0,0,0-2.71,1.53,2.43,2.43,0,0,0,4.71.86,2.22,2.22,0,0,0-2-2.39m1.63,2.3a1.73,1.73,0,0,1-3.34-.61,1.73,1.73,0,0,1,3.34.61"/><path class="cls-1" d="M44.2,11.19a1,1,0,0,1,1.85.34,1,1,0,0,1-1.85-.34"/><path class="cls-1" d="M41.48,28.71h0c.8,1.49-1.76,2-1.76,2,1.78.3,2.76-.78,2.76-1.25a4.48,4.48,0,0,1-1-.78"/><path class="cls-1" d="M25.84,23.92s.33.4.9,1A20.81,20.81,0,0,0,29,26.77a19.47,19.47,0,0,0,2.47,1.57c.35.19.65.33.86.43l.33.16-.34-.14c-.22-.09-.52-.21-.88-.39a19.88,19.88,0,0,1-2.55-1.46,21.17,21.17,0,0,1-2.33-1.81c-.6-.54-1-.94-1-.94a.2.2,0,1,1,.29-.27h0"/><path class="cls-1" d="M46.83,10.41a3.75,3.75,0,0,0-6.33-.3.61.61,0,1,1-.94-.77,4.43,4.43,0,0,1,3.29-1.46,4.34,4.34,0,0,1,4,2.54"/><path class="cls-1" d="M42.77,18.15a8.87,8.87,0,0,1-4.67-1.89A9.6,9.6,0,0,1,35.18,13a.4.4,0,0,1,.14-.55.4.4,0,0,1,.55.14,10.83,10.83,0,0,0,2.77,3.54,9.41,9.41,0,0,0,4.13,2.05"/><path class="cls-1" d="M41,21.81a11.67,11.67,0,0,1-7.33-3.61A11.92,11.92,0,0,1,31.38,15a.4.4,0,0,1,.16-.55.39.39,0,0,1,.55.16,13.62,13.62,0,0,0,2.7,4A10.81,10.81,0,0,0,41,21.81"/><path class="cls-1" d="M27.38,16.32a.41.41,0,0,1,.51.25,14.57,14.57,0,0,0,3.56,5.71,13.18,13.18,0,0,0,8.67,3.88,13.23,13.23,0,0,1-9.41-3.92,15.35,15.35,0,0,1-3.58-5.42.4.4,0,0,1,.25-.51"/><path class="cls-1" d="M41.59,13.21a4.46,4.46,0,0,0,2.33.72,2.84,2.84,0,0,0,3-2.33,3.23,3.23,0,0,1-3.3,2.91,4.44,4.44,0,0,1-2.41-.58.41.41,0,0,1-.18-.54.39.39,0,0,1,.54-.18"/></svg>